<svg width="30" height="30" viewBox="0 0 30 30" fill="none" xmlns="http://www.w3.org/2000/svg">
<g clip-path="url(#clip0)">
<path d="M19.8862 15.1535L30 21.5472V8.48975L19.8862 15.1535Z" fill="white"/>
<path d="M0 8.48975V21.5472L10.1138 15.1535L0 8.48975Z" fill="white"/>
<path d="M28.125 4.6875H1.87502C0.939399 4.6875 0.196899 5.385 0.0562744 6.28313L15 16.1287L29.9438 6.28313C29.8031 5.385 29.0606 4.6875 28.125 4.6875Z" fill="white"/>
<path d="M18.1687 16.2861L15.5156 18.0336C15.3581 18.1367 15.18 18.1873 15 18.1873C14.82 18.1873 14.6419 18.1367 14.4844 18.0336L11.8312 16.2842L0.0599976 23.7298C0.204373 24.6204 0.943123 25.3123 1.875 25.3123H28.125C29.0569 25.3123 29.7956 24.6204 29.94 23.7298L18.1687 16.2861Z" fill="white"/>
</g>
<defs>
<clipPath id="clip0">
<rect width="30" height="30" fill="white"/>
</clipPath>
</defs>
</svg>
