<svg width="55" height="55" viewBox="0 0 55 55" fill="none" xmlns="http://www.w3.org/2000/svg">
<g clip-path="url(#clip0)">
<path d="M28.0413 55.0004C27.8592 55.0004 27.6771 55.0004 27.4937 54.9995C23.1826 55.01 19.1991 54.9005 15.3252 54.6647C11.7736 54.4486 8.53165 53.2212 5.94933 51.1155C3.45764 49.0838 1.7561 46.3365 0.892105 42.9511C0.140152 40.0037 0.100288 37.1104 0.0621033 34.312C0.0344085 32.3041 0.00587463 29.9249 0 27.5054C0.00587463 25.0758 0.0344085 22.6966 0.0621033 20.6887C0.100288 17.8907 0.140152 14.9974 0.892105 12.0496C1.7561 8.66416 3.45764 5.91693 5.94933 3.88515C8.53165 1.77951 11.7736 0.55213 15.3257 0.336028C19.1996 0.100622 23.1838 -0.00931721 27.5042 0.00117322C31.8166 -0.00805836 35.7988 0.100622 39.6727 0.336028C43.2243 0.55213 46.4663 1.77951 49.0486 3.88515C51.5407 5.91693 53.2418 8.66416 54.1058 12.0496C54.8577 14.997 54.8976 17.8907 54.9358 20.6887C54.9635 22.6966 54.9924 25.0758 54.9979 27.4953V27.5054C54.9924 29.9249 54.9635 32.3041 54.9358 34.312C54.8976 37.11 54.8582 40.0033 54.1058 42.9511C53.2418 46.3365 51.5407 49.0838 49.0486 51.1155C46.4663 53.2212 43.2243 54.4486 39.6727 54.6647C35.9628 54.8904 32.1519 55.0004 28.0413 55.0004ZM27.4937 50.7026C31.7348 50.7127 35.6288 50.6057 39.4117 50.3758C42.0972 50.2125 44.4257 49.341 46.3332 47.7855C48.0965 46.3474 49.3108 44.3635 49.9424 41.8886C50.5684 39.4351 50.6045 36.8007 50.6393 34.2532C50.6666 32.2588 50.6952 29.8964 50.701 27.5003C50.6952 25.1039 50.6666 22.7419 50.6393 20.7475C50.6045 18.2 50.5684 15.5656 49.9424 13.1117C49.3108 10.6368 48.0965 8.65283 46.3332 7.21481C44.4257 5.65971 42.0972 4.78816 39.4117 4.62493C35.6288 4.39456 31.7348 4.2884 27.5038 4.29763C23.2635 4.28756 19.3691 4.39456 15.5862 4.62493C12.9007 4.78816 10.5722 5.65971 8.66467 7.21481C6.90144 8.65283 5.68707 10.6368 5.05554 13.1117C4.42947 15.5656 4.39339 18.1995 4.35856 20.7475C4.33128 22.7436 4.30275 25.1073 4.29688 27.5054C4.30275 29.893 4.33128 32.2571 4.35856 34.2532C4.39339 36.8007 4.42947 39.4351 5.05554 41.8886C5.68707 44.3635 6.90144 46.3474 8.66467 47.7855C10.5722 49.3406 12.9007 50.2121 15.5862 50.3753C19.3691 50.6057 23.2644 50.7131 27.4937 50.7026ZM27.3913 40.9281C19.9876 40.9281 13.9636 34.9045 13.9636 27.5003C13.9636 20.0962 19.9876 14.0726 27.3913 14.0726C34.7955 14.0726 40.8191 20.0962 40.8191 27.5003C40.8191 34.9045 34.7955 40.9281 27.3913 40.9281ZM27.3913 18.3695C22.3568 18.3695 18.2605 22.4658 18.2605 27.5003C18.2605 32.5349 22.3568 36.6312 27.3913 36.6312C32.4263 36.6312 36.5222 32.5349 36.5222 27.5003C36.5222 22.4658 32.4263 18.3695 27.3913 18.3695ZM42.323 9.77573C40.5434 9.77573 39.1003 11.2184 39.1003 12.9984C39.1003 14.7784 40.5434 16.221 42.323 16.221C44.103 16.221 45.5456 14.7784 45.5456 12.9984C45.5456 11.2184 44.103 9.77573 42.323 9.77573Z" fill="white"/>
</g>
<defs>
<clipPath id="clip0">
<rect width="55" height="55" fill="white"/>
</clipPath>
</defs>
</svg>
