<svg width="54" height="54" viewBox="0 0 54 54" fill="none" xmlns="http://www.w3.org/2000/svg">
<path d="M0.953815 26.0362L13.3965 30.6802L18.2126 46.1686C18.5207 47.1606 19.7338 47.5273 20.5389 46.869L27.4747 41.2149C28.2017 40.6225 29.2372 40.593 29.997 41.1445L42.5066 50.2267C43.3679 50.8528 44.5882 50.3808 44.8042 49.3401L53.9681 5.25969C54.2039 4.12281 53.0868 3.17439 52.0043 3.59307L0.939234 23.2924C-0.320945 23.7784 -0.309965 25.5626 0.953815 26.0362ZM17.4364 28.2081L41.7541 13.2308C42.1911 12.9624 42.6407 13.5534 42.2654 13.9015L22.1963 32.5567C21.4909 33.2133 21.0359 34.0921 20.907 35.0459L20.2234 40.1122C20.1328 40.7886 19.1826 40.8558 18.9959 40.2011L16.3667 30.9626C16.0655 29.9089 16.5044 28.7833 17.4364 28.2081Z" fill="white"/>
</svg>
