<svg width="57" height="57" viewBox="0 0 57 57" fill="none" xmlns="http://www.w3.org/2000/svg">
<g clip-path="url(#clip0)">
<path d="M47.2981 30.9415C46.3766 29.7778 46.6402 29.26 47.2981 28.2198C47.31 28.2079 54.9171 17.6961 55.7009 14.1312L55.7056 14.1289C56.0951 12.8297 55.7056 11.875 53.8223 11.875H47.5902C46.0037 11.875 45.2722 12.6944 44.8804 13.6111C44.8804 13.6111 41.7074 21.2064 37.2186 26.1298C35.7699 27.5524 35.1001 28.0084 34.3092 28.0084C33.9197 28.0084 33.3141 27.5524 33.3141 26.2533V14.1289C33.3141 12.5709 32.87 11.875 31.5566 11.875H21.7574C20.7622 11.875 20.1709 12.6018 20.1709 13.2786C20.1709 14.7559 22.4152 15.0955 22.648 19.2518V28.2696C22.648 30.2456 22.2894 30.609 21.4937 30.609C19.3752 30.609 14.2334 22.9829 11.1862 14.2548C10.5711 12.5614 9.97024 11.8774 8.37187 11.8774H2.13749C0.358617 11.8774 -7.62939e-06 12.6967 -7.62939e-06 13.6135C-7.62939e-06 15.2332 2.11849 23.2869 9.85149 33.9269C15.0052 41.1896 22.2632 45.125 28.8657 45.125C32.8344 45.125 33.3189 44.251 33.3189 42.7476C33.3189 35.8079 32.9602 35.1524 34.9481 35.1524C35.8696 35.1524 37.4561 35.6084 41.1611 39.1115C45.3957 43.2654 46.0916 45.125 48.4619 45.125H54.6939C56.4704 45.125 57.3705 44.251 56.8527 42.5268C55.6676 38.9001 47.6591 31.4403 47.2981 30.9415Z" fill="white"/>
</g>
<defs>
<clipPath id="clip0">
<rect width="57" height="57" fill="white"/>
</clipPath>
</defs>
</svg>
